<svg width="40" height="40" viewBox="0 0 40 40" fill="none" xmlns="http://www.w3.org/2000/svg">
<path fill-rule="evenodd" clip-rule="evenodd" d="M0 20C0 31.0457 8.95431 40 20 40C30.5411 40 39.1775 31.8451 39.9446 21.5H40V20L40 18.5H39.9446C39.1775 8.1549 30.5411 0 20 0C8.95431 0 0 8.9543 0 20ZM39.9446 18.5L13.6213 18.5L20.6066 11.5147C21.1924 10.9289 21.1924 9.97917 20.6066 9.39338C20.0208 8.8076 19.0711 8.8076 18.4853 9.39338L8.93934 18.9393C8.35355 19.5251 8.35355 20.4748 8.93934 21.0606L18.4853 30.6066C19.0711 31.1924 20.0208 31.1924 20.6066 30.6066C21.1924 30.0208 21.1924 29.0711 20.6066 28.4853L13.6213 21.5L39.9446 21.5C39.9813 21.0048 40 20.5046 40 20C40 19.4954 39.9813 18.9952 39.9446 18.5Z" fill="#FFFDFD"/>
</svg>
