<svg width="40" height="40" viewBox="0 0 40 40" fill="none" xmlns="http://www.w3.org/2000/svg">
<path fill-rule="evenodd" clip-rule="evenodd" d="M20 40C31.0457 40 40 31.0457 40 20C40 9.45889 31.8451 0.822454 21.5 0.0554029V0H20H18.5V0.0554029C8.1549 0.822454 0 9.45889 0 20C0 31.0457 8.9543 40 20 40ZM18.5 0.0554029L18.5 26.3787L11.5147 19.3934C10.9289 18.8076 9.97917 18.8076 9.39338 19.3934C8.8076 19.9792 8.8076 20.9289 9.39338 21.5147L18.9393 31.0607C19.5251 31.6464 20.4748 31.6464 21.0606 31.0607L30.6066 21.5147C31.1924 20.9289 31.1924 19.9792 30.6066 19.3934C30.0208 18.8076 29.0711 18.8076 28.4853 19.3934L21.5 26.3787L21.5 0.0554029C21.0048 0.0186857 20.5046 0 20 0C19.4954 0 18.9952 0.0186857 18.5 0.0554029Z" fill="#FFFDFD"/>
</svg>
