<svg width="40" height="40" viewBox="0 0 40 40" fill="none" xmlns="http://www.w3.org/2000/svg">
<path fill-rule="evenodd" clip-rule="evenodd" d="M40 20C40 8.95431 31.0457 3.70216e-07 20 2.38498e-07C9.45889 1.12796e-07 0.822454 8.1549 0.0554032 18.5L2.56385e-07 18.5L2.38498e-07 20L2.2061e-07 21.5L0.0554032 21.5C0.822454 31.8451 9.45889 40 20 40C31.0457 40 40 31.0457 40 20ZM0.0554032 21.5L26.3787 21.5L19.3934 28.4853C18.8076 29.0711 18.8076 30.0208 19.3934 30.6066C19.9792 31.1924 20.9289 31.1924 21.5147 30.6066L31.0607 21.0607C31.6464 20.4749 31.6464 19.5252 31.0607 18.9394L21.5147 9.39342C20.9289 8.80763 19.9792 8.80763 19.3934 9.39341C18.8076 9.9792 18.8076 10.9289 19.3934 11.5147L26.3787 18.5L0.0554032 18.5C0.018686 18.9952 2.44515e-07 19.4954 2.38498e-07 20C2.32481e-07 20.5046 0.0186859 21.0048 0.0554032 21.5Z" fill="#FFFDFD"/>
</svg>
