<svg width="49" height="49" viewBox="0 0 49 49" fill="none" xmlns="http://www.w3.org/2000/svg">
<path fill-rule="evenodd" clip-rule="evenodd" d="M49 24.5C49 38.031 38.031 49 24.5 49C10.969 49 0 38.031 0 24.5C0 10.969 10.969 0 24.5 0C32.2144 0 39.0961 3.56548 43.587 9.13843C43.2319 9.25861 42.8984 9.45702 42.6143 9.73367L23.7855 27.9622L15.3902 19.7348C14.3856 18.7581 12.7575 18.7581 11.7531 19.7348C10.749 20.7114 10.749 22.2897 11.7531 23.2664L22.0417 33.2675C23.0462 34.2442 24.6695 34.2442 25.674 33.2675L46.2466 13.2653C46.2536 13.2585 46.2605 13.2517 46.2674 13.2448C48.0136 16.615 49 20.4423 49 24.5Z" fill="black"/>
</svg>
