<svg width="50" height="50" viewBox="0 0 50 50" fill="none" xmlns="http://www.w3.org/2000/svg">
<path fill-rule="evenodd" clip-rule="evenodd" d="M49.5 25C49.5 38.531 38.531 49.5 25 49.5C11.469 49.5 0.5 38.531 0.5 25C0.5 11.469 11.469 0.5 25 0.5C38.531 0.5 49.5 11.469 49.5 25ZM15.5371 24.3177C15.5371 19.97 19.545 16.4632 24.5137 16.4632C29.4825 16.4632 33.4903 19.97 33.4903 24.3177C33.4903 28.6653 29.4825 32.1722 24.5137 32.1722C19.545 32.1722 15.5371 28.6653 15.5371 24.3177ZM18.6778 24.3177C18.6778 27.1341 21.3028 29.4241 24.5137 29.4241C27.7247 29.4241 30.3497 27.1341 30.3497 24.3177C30.3497 21.5013 27.7325 19.2112 24.5137 19.2112C21.295 19.2112 18.6778 21.5013 18.6778 24.3177ZM33.8575 17.9739C35.0137 17.9739 35.9512 17.1604 35.9512 16.1419C35.9512 15.1302 35.0137 14.3099 33.8575 14.3099C32.7012 14.3099 31.7637 15.1302 31.7637 16.1419C31.7637 17.1536 32.6934 17.9739 33.8575 17.9739ZM39.0684 11.5823C41.1231 13.3733 41.7637 15.5472 41.8965 18.0013C42.0606 20.5306 42.0606 28.1048 41.8965 30.6341C41.7559 33.0882 41.1153 35.262 39.0684 37.053C37.0215 38.8509 34.5372 39.4114 31.7325 39.5276C28.8418 39.6712 20.1778 39.6712 17.2872 39.5276C14.4825 39.4046 12.0059 38.844 9.95115 37.053C7.89648 35.262 7.25586 33.0882 7.12304 30.6341C6.95898 28.1048 6.95898 20.5237 7.12304 17.9944C7.26367 15.5403 7.89648 13.3665 9.95115 11.5755C12.0059 9.7845 14.4903 9.2239 17.2872 9.1077C20.1778 8.9641 28.8418 8.9641 31.7325 9.1077C34.5372 9.2307 37.0215 9.7913 39.0684 11.5823ZM34.834 36.26C36.3731 35.72 37.5528 34.6878 38.1621 33.3479C38.9461 31.6241 38.9025 27.8533 38.8742 25.409C38.8695 25.0036 38.8653 24.6347 38.8653 24.3177C38.8653 24.0006 38.8695 23.6318 38.8742 23.2265C38.9025 20.7835 38.9461 17.0171 38.1621 15.2874C37.545 13.9407 36.3653 12.9085 34.834 12.3753C32.8577 11.693 28.5273 11.7293 25.7346 11.7527C25.2816 11.7565 24.8691 11.76 24.5137 11.76C24.1513 11.76 23.7298 11.7563 23.2667 11.7522C20.4747 11.7274 16.1702 11.6893 14.1934 12.3753C12.6543 12.9153 11.4747 13.9475 10.8653 15.2874C10.0855 17.0166 10.127 20.8053 10.1538 23.2489C10.1582 23.6455 10.1622 24.0066 10.1622 24.3177C10.1622 24.6349 10.1579 25.0038 10.1532 25.4092C10.1249 27.8522 10.0813 31.6183 10.8653 33.3479C11.4825 34.6946 12.6621 35.7268 14.1934 36.26C16.1697 36.9423 20.5 36.906 23.2927 36.8826C23.7457 36.8788 24.1582 36.8753 24.5137 36.8753C24.8761 36.8753 25.2977 36.879 25.761 36.8831C28.553 36.9079 32.8572 36.9461 34.834 36.26Z" fill="black"/>
</svg>
