<svg width="50" height="50" viewBox="0 0 50 50" fill="none" xmlns="http://www.w3.org/2000/svg">
<path d="M25 0.78125C11.1928 0.78125 0 11.6243 0 25C0 38.3757 11.1928 49.2188 25 49.2188C38.8072 49.2188 50 38.3757 50 25C50 11.6243 38.8072 0.78125 25 0.78125ZM36.5879 17.252C36.2117 21.0815 34.5838 30.3748 33.7552 34.6641C33.4048 36.4789 32.7147 37.0875 32.0468 37.147C30.5952 37.2765 29.4925 36.2176 28.0864 35.3246C25.8861 33.9273 24.643 33.0575 22.5072 31.694C20.0389 30.1184 21.639 29.2526 23.0457 27.8366C23.4138 27.4662 29.8105 21.8298 29.9343 21.3185C29.9497 21.2545 29.9645 21.0157 29.8179 20.8903C29.6714 20.7649 29.456 20.8074 29.3003 20.8415C29.0797 20.8901 25.5646 23.1408 18.7551 27.5937C17.7575 28.2573 16.8538 28.5807 16.0441 28.5638C15.1514 28.5451 13.4344 28.0749 12.1579 27.6729C10.5922 27.1799 9.34788 26.9192 9.45625 26.0819C9.5127 25.6457 10.1327 25.1998 11.3161 24.744C18.6042 21.668 23.464 19.64 25.8956 18.6601C32.8383 15.8625 34.2809 15.3766 35.2213 15.3604C35.4281 15.357 35.8905 15.4066 36.19 15.6421C36.3892 15.8098 36.5162 16.0439 36.5459 16.2979C36.5966 16.6134 36.6107 16.9334 36.5879 17.252V17.252Z" fill="black"/>
</svg>
