<svg width="50" height="50" viewBox="0 0 50 50" fill="none" xmlns="http://www.w3.org/2000/svg">
<path fill-rule="evenodd" clip-rule="evenodd" d="M49.5 25C49.5 38.531 38.531 49.5 25 49.5C11.469 49.5 0.5 38.531 0.5 25C0.5 11.469 11.469 0.5 25 0.5C38.531 0.5 49.5 11.469 49.5 25ZM26.1357 8.02733C33.9697 8.06151 37.4834 10.6113 38.3516 11.4111C41.2363 13.9199 42.8359 19.4707 41.7559 28.2617C40.8101 36.0148 35.4067 37.3903 33.5886 37.8532C33.4093 37.8988 33.2649 37.9356 33.1631 37.9687C32.6709 38.126 28.3574 39.2061 22.7383 38.7344C22.1162 39.4521 21.2959 40.3955 20.7012 41.0381C20.5211 41.2318 20.3524 41.4232 20.1912 41.6062C19.3795 42.5276 18.7563 43.235 17.8096 42.9385C16.8662 42.6514 16.9209 41.2227 16.9209 41.2227L16.9277 37.6953H16.9209C8.71092 35.3848 8.82713 26.8672 8.92283 22.3213C9.01854 17.7754 9.90037 14.1045 12.4023 11.6025C16.9004 7.47362 26.1357 8.02733 26.1357 8.02733ZM32.664 35.3848C34.2101 35.024 38.5076 34.0212 39.3018 27.6191C40.2109 20.2842 38.9668 15.2803 36.5264 13.1885C35.7881 12.5186 32.6162 10.5225 25.9922 10.4951C25.9922 10.4951 18.1514 9.98241 14.3437 13.4346C12.2246 15.5264 11.5068 18.6367 11.4316 22.4307C11.429 22.5612 11.426 22.6957 11.423 22.834C11.3369 26.7171 11.1856 33.5438 17.9053 35.4053C17.9053 35.4053 17.8779 40.792 17.8779 41.2637C17.8711 41.9814 18.2676 42.0156 18.6299 41.6533C19.7373 40.5391 23.292 36.2529 23.292 36.2529C28.0566 36.5605 31.8506 35.6172 32.2607 35.4873C32.3559 35.4567 32.4931 35.4247 32.664 35.3848ZM28.918 22.1367C28.9453 22.7246 29.8271 22.6836 29.7998 22.0957C29.7041 20.1338 28.6445 19.04 26.7373 18.9375C26.1562 18.9033 26.1016 19.7852 26.6894 19.8193C28.1387 19.9014 28.8428 20.6328 28.918 22.1367ZM26.0059 17.4473C29.4443 17.7002 31.2559 19.9697 31.1875 22.8682C31.1738 23.4492 32.0625 23.4766 32.0693 22.8887C32.1445 19.5801 30.0322 16.8525 26.0674 16.5654C25.4863 16.5244 25.4248 17.4063 26.0059 17.4473ZM33.5185 23.791C33.5185 24.3789 34.4072 24.3721 34.4004 23.7842C34.3525 17.7822 30.2988 14.3027 25.2607 14.2686C24.6797 14.2686 24.6797 15.1436 25.2607 15.1504C29.7656 15.1846 33.4775 18.2197 33.5185 23.791ZM33.6279 30.5039V30.4902C33.956 29.8613 33.8467 29.2666 33.3682 28.877C32.5205 28.0771 31.2422 27.1953 30.2373 26.6279C29.4922 26.2109 28.7334 26.4707 28.4189 26.8809L27.7627 27.7012C27.4277 28.1182 26.8057 28.0635 26.8057 28.0635C22.2598 26.9014 21.043 22.3008 21.043 22.3008C21.043 22.3008 20.9883 21.6787 21.4053 21.3438L22.2256 20.6875C22.6357 20.373 22.8955 19.6143 22.4785 18.8691C22.2393 18.4521 21.7812 17.707 21.4394 17.2422C21.0771 16.7432 20.2295 15.7314 20.2295 15.7314C19.8262 15.2461 19.2246 15.1367 18.5957 15.4648H18.582C17.2764 16.2031 15.8476 17.584 16.3057 19.0059C16.3057 19.0059 16.6269 20.1816 18.083 22.8135C18.7734 24.0713 19.4844 25.1172 20.1885 25.999C20.9678 26.9902 21.9795 28.0225 23.0869 28.8975C25.2334 30.6064 28.6309 32.3564 30.0732 32.7598L30.0869 32.7803C31.5088 33.2383 32.8896 31.8027 33.6279 30.5039Z" fill="black"/>
</svg>
