<svg width="50" height="50" viewBox="0 0 50 50" fill="none" xmlns="http://www.w3.org/2000/svg">
<path fill-rule="evenodd" clip-rule="evenodd" d="M49.5 25C49.5 38.531 38.531 49.5 25 49.5C18.5443 49.5 12.6718 47.0031 8.29547 42.9224L17.1953 40.5859C19.7266 41.9688 22.5781 42.6953 25.4844 42.6953H25.4922C35.0469 42.6953 43 34.9141 43 25.3516C43 20.7188 41.0312 16.3672 37.7578 13.0859C34.4844 9.80469 30.125 8 25.4922 8C15.9297 8 8.14844 15.7812 8.14844 25.3438C8.14844 28.3984 8.94531 31.3828 10.4609 34.0156L8.07758 42.7168C3.40848 38.2557 0.5 31.9675 0.5 25C0.5 11.469 11.469 0.5 25 0.5C38.531 0.5 49.5 11.469 49.5 25ZM18.1484 37.7656C20.3594 39.0781 22.8984 39.7734 25.4922 39.7734C33.4375 39.7734 40.0703 33.3047 40.0703 25.3516C40.0781 21.5 38.4062 17.8828 35.6875 15.1562C32.9687 12.4297 29.3516 10.9297 25.5 10.9297C17.5469 10.9297 11.0781 17.3984 11.0781 25.3438C11.0781 28.0703 11.8359 30.7188 13.2812 33.0156L13.625 33.5625L12.1719 38.8828L17.625 37.4531L18.1484 37.7656ZM30.4375 27.5703C30.8359 27.7109 32.9688 28.7578 33.3984 28.9766C33.4687 29.0111 33.5353 29.0429 33.5978 29.0728C33.9177 29.2256 34.1338 29.3289 34.2188 29.4922C34.3281 29.6719 34.3281 30.5391 33.9687 31.5547C33.6094 32.5703 31.8828 33.4922 31.0469 33.6172C29.6719 33.8203 28.5937 33.7187 25.8437 32.5312C21.7921 30.7782 19.0544 26.8647 18.5197 26.1002C18.4801 26.0437 18.4526 26.0043 18.4375 25.9844C18.432 25.9768 18.4255 25.9681 18.4182 25.9581C18.1463 25.5873 16.6719 23.577 16.6719 21.5C16.6719 19.5076 17.6469 18.4628 18.1 17.9772C18.1319 17.943 18.1613 17.9116 18.1875 17.8828C18.5859 17.4531 19.0547 17.3438 19.3437 17.3438C19.6328 17.3438 19.9219 17.3438 20.1719 17.3594C20.2041 17.3613 20.2377 17.3612 20.2725 17.3612C20.5246 17.3607 20.8395 17.3601 21.1484 18.1016C21.2545 18.3577 21.405 18.7242 21.5671 19.1192C21.9539 20.0616 22.4073 21.1662 22.4844 21.3203C22.5937 21.5391 22.6641 21.7891 22.5234 22.0781C22.1551 22.8147 21.7744 23.2129 21.5044 23.4954C21.1674 23.848 21.0027 24.0202 21.25 24.4453C22.9297 27.3281 24.6016 28.3281 27.1484 29.6016C27.5781 29.8203 27.8359 29.7813 28.0859 29.4922C28.3438 29.1953 29.1719 28.2266 29.4609 27.7891C29.75 27.3516 30.0391 27.4219 30.4375 27.5703Z" fill="black"/>
</svg>
